<svg xmlns="http://www.w3.org/2000/svg" viewBox="0 0 32 32"><defs><style>.cls-1{fill:#231f20;}</style></defs><g id="coupon"><path class="cls-1" d="M29,18a1,1,0,0,0,1-1V8.45A1.45,1.45,0,0,0,28.55,7H3.45A1.45,1.45,0,0,0,2,8.45v3.13A1.45,1.45,0,0,0,3.32,13a3,3,0,0,1,0,6A1.45,1.45,0,0,0,2,20.42v3.13A1.45,1.45,0,0,0,3.45,25h25.1A1.45,1.45,0,0,0,30,23.55V21a1,1,0,0,0-2,0v2H14v-.5a1,1,0,0,0-2,0V23H4V20.9a5,5,0,0,0,0-9.8V9h8v.5a1,1,0,0,0,2,0V9H28v8A1,1,0,0,0,29,18Z"/><path class="cls-1" d="M13,16.38a1,1,0,0,0-1,1v2.36a1,1,0,0,0,2,0V17.38A1,1,0,0,0,13,16.38Z"/><path class="cls-1" d="M14,12.26a1,1,0,1,0-2,0v2.36a1,1,0,0,0,2,0Z"/><path class="cls-1" d="M16.29,20.71a1,1,0,0,0,1.42,0l8-8a1,1,0,0,0-1.42-1.42l-8,8A1,1,0,0,0,16.29,20.71Z"/><path class="cls-1" d="M17,13a1,1,0,0,0,0-2h0a1,1,0,1,0,0,2Z"/><path class="cls-1" d="M25,21a1,1,0,0,0,0-2h0a1,1,0,1,0,0,2Z"/></g></svg>